%FSTAX23Y23*%
%MOIN*%
%SFA1B1*%

%IPPOS*%
%ADD17R,0.019685X0.019685*%
%ADD18R,0.031496X0.059055*%
%ADD19R,0.059055X0.031496*%
%ADD20R,0.188976X0.188976*%
%ADD21C,0.010000*%
%ADD22R,0.090551X0.090551*%
%ADD23C,0.090551*%
%LNco2devicepcb1-1*%
%LPD*%
G36*
X0637Y01317D02*
X06392D01*
Y01257*
X0636*
Y01307*
X0637Y01317*
G37*
G54D17*
X06376Y01287D03*
G54D18*
X06425Y01287D03*
X06475D03*
X06524D03*
X06573D03*
X06376Y01602D03*
X06425D03*
X06475D03*
X06524D03*
X06573D03*
G54D19*
X06632Y01346D03*
Y01395D03*
Y01445D03*
Y01494D03*
Y01543D03*
X06317Y01346D03*
Y01395D03*
Y01445D03*
Y01494D03*
Y01543D03*
G54D20*
X06475Y01445D03*
G54D21*
X05986Y01526D02*
X0616Y017D01*
X0671*
X06735Y01675*
X06376Y01346D02*
X06475Y01445D01*
X06317Y01346D02*
X06376D01*
X06475Y01445D02*
X06573Y01346D01*
X06632*
X06176D02*
X06317D01*
X0605Y0122D02*
X06176Y01346D01*
X05776Y0122D02*
X0605D01*
X0577Y01214D02*
X05776Y0122D01*
X05565Y0137D02*
X0577D01*
X05555Y01359D02*
X05565Y0137D01*
X05555Y0112D02*
Y01359D01*
Y0112D02*
X0556Y01115D01*
X06645*
X0674Y0121*
Y01389*
X06734Y01395D02*
X0674Y01389D01*
X06632Y01395D02*
X06734D01*
X06313Y014D02*
X06317Y01395D01*
X06085Y014D02*
X06313D01*
X06055Y0137D02*
X06085Y014D01*
X0577Y0137D02*
X06055D01*
X06632Y01543D02*
X06634Y01545D01*
X06729*
X06735Y0155*
Y01675*
X0577Y01526D02*
X05986D01*
X06632Y01494D02*
X06633Y01495D01*
X06779*
X06785Y015*
Y0175*
X06775Y0176D02*
X06785Y0175D01*
X0606Y0176D02*
X06775D01*
X05982Y01682D02*
X0606Y0176D01*
X0577Y01682D02*
X05982D01*
G54D22*
X0577Y01214D03*
G54D23*
X0577Y0137D03*
Y01526D03*
Y01682D03*
M02*